.
..............................Site Info...........................

 -   http://www.scenetime.com  *_*   

SceneTime is going to Close sign up on march/1, hurry up! get in before the doors are closed.

     We care to share . Join us on  http://www.scenetime.com 

    Be the first to get new release at  http://www.scenetime.com

        Seed back for speed


...................................NFO:.................................................
                                                                             
 :::  :::  :::::  :::   :::   :::::    ::: :::     :::    :::::    
 :::  :::  ::::::::::  :::   :::::::    ::::: :::     :::   :::::::   
 :::  ::::::::::::::::::::::::::: ::: ::: :::     :::  :::::::::  
 :::  ::: :::::::::::: :::::: ::: ::: :::     :::  ::::::  
 :::  ::: ::: :::::::::: :::  ::: ::: :::  :::     :::  ::: :::  
 :::  ::: ::: :::::::::  :::  ::: ::: :::  :::  :  :::  ::: :::  
 :::  ::: ::: :::::::::: :::  ::: ::: :::  ::: ::: :::  ::: :::  
 :::  ::: ::: ::::::::::::  ::: ::: :::  ::: : : :::  ::: :::  
 :::..::: ::: :::::: ::::::  ::: ::: :::  ::::: :::::  ::: :::  
 ::::::::: :::::: ::::::  ::: ::::: ::::: :::::  ::: :::  
  ::::  ::: ::::::  ::::::  ::: :::  ::::   ::::  ::: :::  

                                                                              
                  NOTES                    
                                                                              
                  NOTES                    
                                                                              
                                                                              
                                                                              
 Encoded By .......:UnKnOwN                                                   
 Runtime ..........:1:20                                                      
 IMDb URL .........:http://www.imdb.com/title/tt1650537/                      
 Language .........:English                                                   
 File Size ........:1.05gb                                                    
 Release Date ......... 2012                                                  
 Source       ......... Disneyland(:                                          
 File Type    ......... Single AVI                                            
 PS3 Compatible ....... Go For It                                             
 Genre        ......... Horror/thriller                                       
                                                                              
                                                                              
 Video                                                                        
  ID                               : 0                                        
  Format                           : MPEG-4 Visual                            
  Format profile                   : Advanced Simple@L5                        
  Format settings, BVOP            : Yes                                       
  Format settings, QPel            : No                                        
  Format settings, GMC             : No warppoints                             
  Format settings, Matrix          : Custom                                    
  Codec ID                         : XVID                                      
  Codec ID/Hint                    : XviD                                      
  Duration                         : 1h 20mn                                   
  Bit rate                         : 1280Kbps                                  
  Width                            : 680ixels                                  
  Height                           : 384pixels                                 
  Display aspect ratio             : 1.8.5                                     
  Frame rate                       : 23.997fps                                 
  Color space                      : YUV                                       
  Chroma subsampling               : 4:2:0                                     
  Bit depth                        : 8 bits                                    
  Scan type                        : Progressive                               
  Bits/(Pixel*Frame)               : 0.234                                     
  Stream size                      : 892 MiB (86%)                             
  Writing library                  : XviD 1.2.1 (UTC 2008-12-04)              
                                                                              
                                                                              
 Audio                                                                         
 ID                               : 1                                          
 Format                           : AC3                                        
 Format/Info                      : MPEG                                       
 Mode extension                   : CM (complete main)                         
 Codec ID                         : 2000                                       
 Duration                         : 1h 20mn                                    
 Bit rate mode                    : Constant                                   
 Bit rate                         : 448kbps                                    
 Channel(s)                       : 6channels                                  
 Channel positions                : Front: L R                                 
 Sampling rate                    : 48.0 KHz                                   
 Bit depth                        : 16 bits                                    
 Stream size                      : 302 MiB                                    
 Alignment                        : Aligned on interleaves                     
 Interleave, duration             : 42 ms (1.00 video frame)                   
 Interleave, preload duration     : 512 ms                                    
                                                                              
                                                                              
                                                                              
                                                                               
                                                                              
                                                                              
                                                                              
                                 SYSPNOSIS                                                                   
   Inkubus tells the story of a skeleton crew working the final shift at a    
                  soon to be demolished police station...                     
                                                                                
                                                                              
                                                                              
                                                                                                           
                                                                                                     
                                                                                           
                                                                              
                              RELEASE INFO                                       
                                 Enjoy                                        
                                                                              
                                                                              
                                                                              
                                                                               
                                                                              
                                                                              
                                                                              
                                                                              
                                                                              
                                                                              

                 
              
                                                                              
                              LOOKING FOR                                     
                                                                              
                  A french hooker and a electric shaver                       
                                                                              
                                                                              
                                                                              
                                                                              

               GREETZ & RESPECT               
  
                          NOBODY YET WILL LET YOU KNOW                        
                                                                              
                          MORE GOODIES COMING REAL SOON